<mxfile host="app.diagrams.net" modified="2023-08-19T20:49:18.841Z" agent="Mozilla/5.0 (X11; Linux x86_64) AppleWebKit/537.36 (KHTML, like Gecko) Chrome/114.0.0.0 Safari/537.36" etag="Ytbbn7iWzEnEkLlFL4-L" version="21.6.5" type="github">
  <diagram name="User Registration" id="workflow1">
    <mxGraphModel dx="800" dy="600" grid="1" gridSize="10" guides="1" tooltips="1" connect="1" arrows="1" fold="1" page="1" pageScale="1" pageWidth="800" pageHeight="600" background="none" math="0" shadow="0">
      <root>
        <!-- Elements for User Registration Workflow -->
        <mxCell id="0" />
        <mxCell id="1" parent="0" />
        <mxCell id="2" value="User" style="swimlane;whiteSpace=wrap" parent="1" vertex="1">
          <mxGeometry x="60" y="60" width="180" height="150" as="geometry" />
        </mxCell>
        <mxCell id="3" value="Website/Client" style="rounded=0;whiteSpace=wrap;html=1;" vertex="1" parent="2">
          <mxGeometry x="15" y="15" width="150" height="50" as="geometry" />
        </mxCell>
        <mxCell id="4" value="Server/API" style="rounded=0;whiteSpace=wrap;html=1;" vertex="1" parent="2">
          <mxGeometry x="15" y="75" width="150" height="50" as="geometry" />
        </mxCell>
        <mxCell id="5" value="Service Layer" style="rounded=0;whiteSpace=wrap;html=1;" vertex="1" parent="2">
          <mxGeometry x="15" y="135" width="150" height="50" as="geometry" />
        </mxCell>
        <mxCell id="6" value="Data Access Layer (DAO)" style="rounded=0;whiteSpace=wrap;html=1;" vertex="1" parent="2">
          <mxGeometry x="15" y="195" width="150" height="50" as="geometry" />
        </mxCell>
        <mxCell id="7" value="Mailer" style="rounded=0;whiteSpace=wrap;html=1;" vertex="1" parent="2">
          <mxGeometry x="15" y="255" width="150" height="50" as="geometry" />
        </mxCell>
        
        <!-- Edges connecting the elements -->
        <mxCell id="8" style="edgeStyle=orthogonalEdgeStyle;rounded=0;orthogonalLoop=1;jettySize=auto;html=1;exitX=0.5;exitY=1;exitDx=0;exitDy=0;exitPerimeter=0;entryX=0.5;entryY=0;entryDx=0;entryDy=0;entryPerimeter=0;" edge="1" parent="2" source="3" target="4">
          <mxGeometry relative="1" as="geometry" />
        </mxCell>
        <mxCell id="9" style="edgeStyle=orthogonalEdgeStyle;rounded=0;orthogonalLoop=1;jettySize=auto;html=1;exitX=0.5;exitY=1;exitDx=0;exitDy=0;exitPerimeter=0;entryX=0.5;entryY=0;entryDx=0;entryDy=0;entryPerimeter=0;" edge="1" parent="2" source="4" target="5">
          <mxGeometry relative="1" as="geometry" />
        </mxCell>
        <mxCell id="10" style="edgeStyle=orthogonalEdgeStyle;rounded=0;orthogonalLoop=1;jettySize=auto;html=1;exitX=0.5;exitY=1;exitDx=0;exitDy=0;exitPerimeter=0;entryX=0.5;entryY=0;entryDx=0;entryDy=0;entryPerimeter=0;" edge="1" parent="2" source="5" target="6">
          <mxGeometry relative="1" as="geometry" />
        </mxCell>
        <mxCell id="11" style="edgeStyle=orthogonalEdgeStyle;rounded=0;orthogonalLoop=1;jettySize=auto;html=1;exitX=0.5;exitY=1;exitDx=0;exitDy=0;exitPerimeter=0;entryX=0.5;entryY=0;entryDx=0;entryDy=0;entryPerimeter=0;" edge="1" parent="2" source="6" target="7">
          <mxGeometry relative="1" as="geometry" />
        </mxCell>
      </root>
    </mxGraphModel>
  </diagram>
</mxfile>
